<svg width="64" height="64" viewBox="0 0 64 64" fill="none" xmlns="http://www.w3.org/2000/svg">
<g clip-path="url(#clip0_526_5)">
<path fill-rule="evenodd" clip-rule="evenodd" d="M32.0002 5.33325C17.2722 5.33325 5.3335 17.2719 5.3335 31.9999C5.3335 37.0399 6.7335 41.7599 9.16816 45.7813L6.7895 53.8666C6.65292 54.3308 6.64394 54.8232 6.76348 55.2921C6.88303 55.761 7.12669 56.1891 7.46885 56.5312C7.81102 56.8734 8.23905 57.1171 8.70794 57.2366C9.17683 57.3562 9.66928 57.3472 10.1335 57.2106L18.2188 54.8319C22.3753 57.3468 27.1421 58.6732 32.0002 58.6666C46.7282 58.6666 58.6668 46.7279 58.6668 31.9999C58.6668 17.2719 46.7282 5.33325 32.0002 5.33325ZM25.9682 38.0346C31.3628 43.4266 36.5122 44.1386 38.3308 44.2053C41.0962 44.3066 43.7895 42.1946 44.8375 39.7439C44.9698 39.4391 45.0178 39.1043 44.9765 38.7745C44.9353 38.4447 44.8062 38.1321 44.6028 37.8693C43.1415 36.0026 41.1655 34.6613 39.2348 33.3279C38.8317 33.0492 38.3364 32.9374 37.8526 33.0159C37.3689 33.0945 36.9344 33.3573 36.6402 33.7493L35.0402 36.1893C34.956 36.3204 34.825 36.4145 34.6738 36.4522C34.5226 36.4898 34.3627 36.4683 34.2268 36.3919C33.1415 35.7706 31.5602 34.7146 30.4242 33.5786C29.2882 32.4426 28.2962 30.9333 27.7388 29.9173C27.6697 29.7882 27.6498 29.6384 27.6826 29.4957C27.7155 29.3531 27.7989 29.2271 27.9175 29.1413L30.3815 27.3119C30.7331 27.0062 30.9601 26.5818 31.0191 26.1196C31.0781 25.6573 30.965 25.1895 30.7015 24.8053C29.5068 23.0559 28.1148 20.8319 26.0962 19.3573C25.8356 19.1685 25.5305 19.0507 25.2107 19.0157C24.8908 18.9806 24.5674 19.0294 24.2722 19.1573C21.8188 20.2079 19.6962 22.9013 19.7975 25.6719C19.8642 27.4906 20.5762 32.6399 25.9682 38.0346V38.0346Z" fill="white"/>
</g>
<defs>
<clipPath id="clip0_526_5">
<rect width="64" height="64" fill="white"/>
</clipPath>
</defs>
</svg>
