<svg width="64" height="64" viewBox="0 0 64 64" fill="none" xmlns="http://www.w3.org/2000/svg">
<path d="M48.2201 20C49.3655 19.1928 50.4413 18.291 51.4361 17.304C53.5241 15.216 54.9201 12.648 55.3681 10.072C55.8601 7.24805 55.1401 4.62405 53.3921 2.88005C52.0001 1.48805 50.1121 0.748047 47.9321 0.748047C44.8321 0.748047 41.5601 2.23605 38.9641 4.83205C34.8081 8.98805 32.3881 14.72 31.0841 18.816C30.1201 14.704 28.1961 9.15205 24.4561 5.41205C22.4521 3.40805 19.8881 2.37605 17.4641 2.37605C15.4841 2.37605 13.6041 3.06405 12.1961 4.46805C9.07209 7.59205 9.49609 13.08 13.1401 16.724C14.4401 18.024 15.9601 19.104 17.5601 20H3.99609V36H7.99609V64H55.9961V36H59.9961V20H48.2161H48.2201ZM42.1441 8.01205C43.8761 6.28005 46.0401 5.24405 47.9281 5.24405C48.5961 5.24405 49.5361 5.38405 50.2081 6.05605C51.8361 7.68405 50.9201 11.452 48.2521 14.12C45.5041 16.868 41.8121 18.756 38.6001 20H35.4321C36.5921 16.404 38.6841 11.472 42.1441 8.01205V8.01205ZM14.6201 10.056C14.5761 9.48405 14.6161 8.41605 15.3841 7.65205C15.9485 7.1275 16.6981 6.8484 17.4681 6.87605C18.7961 6.87605 20.1841 7.50405 21.2761 8.59205C23.3921 10.708 25.1361 14.076 26.3161 18.336L26.4081 18.68L26.0641 18.588C21.8081 17.408 18.4401 15.664 16.3201 13.548C15.3601 12.6216 14.7568 11.3868 14.6161 10.06L14.6201 10.056ZM28.0001 60H12.0001V34H28.0001V60ZM28.0001 32H8.00009V24H28.0001V32ZM52.0001 60H36.0001V34H52.0001V60ZM56.0001 32H36.0001V24H56.0001V32Z" fill="black"/>
</svg>
