<svg width="24" height="40" viewBox="0 0 24 40" fill="none" xmlns="http://www.w3.org/2000/svg">
<path d="M1.63653 39.1195C1.07277 38.5556 0.756069 37.7909 0.75607 36.9935C0.75607 36.1961 1.07277 35.4313 1.63653 34.8674L16.5221 19.9818L1.63653 5.0963C1.08875 4.52914 0.785646 3.76952 0.792497 2.98105C0.799349 2.19257 1.11561 1.43833 1.67317 0.880779C2.23072 0.323223 2.98496 0.00696484 3.77343 0.000113294C4.56191 -0.00673825 5.32153 0.296369 5.88869 0.844151L22.9003 17.8558C23.4641 18.4197 23.7808 19.1844 23.7808 19.9818C23.7808 20.7792 23.4641 21.544 22.9003 22.1079L5.88868 39.1195C5.32475 39.6833 4.56 40 3.76261 40C2.96521 40 2.20046 39.6833 1.63653 39.1195Z" fill="#C39B7F"/>
</svg>
