<svg width="16" height="16" viewBox="0 0 16 16" fill="none" xmlns="http://www.w3.org/2000/svg">
<path d="M7.99249 3.88865C7.18083 3.88865 6.38739 4.12933 5.71252 4.58027C5.03764 5.03121 4.51164 5.67214 4.20103 6.42202C3.89042 7.1719 3.80915 7.99705 3.9675 8.79311C4.12585 9.58918 4.5167 10.3204 5.09064 10.8944C5.66457 11.4683 6.3958 11.8591 7.19187 12.0175C7.98794 12.1758 8.81309 12.0946 9.56297 11.784C10.3128 11.4733 10.9538 10.9473 11.4047 10.2725C11.8557 9.59759 12.0963 8.80416 12.0963 7.99249C12.0977 7.4532 11.9924 6.91896 11.7866 6.42046C11.5809 5.92196 11.2786 5.46903 10.8973 5.08769C10.516 4.70635 10.063 4.40411 9.56453 4.19834C9.06603 3.99257 8.53179 3.88733 7.99249 3.88865ZM7.99249 10.665C7.46392 10.665 6.94722 10.5083 6.50773 10.2146C6.06824 9.92094 5.7257 9.50355 5.52342 9.01522C5.32114 8.52688 5.26822 7.98953 5.37134 7.47111C5.47446 6.9527 5.72899 6.4765 6.10275 6.10275C6.4765 5.72899 6.9527 5.47446 7.47111 5.37134C7.98953 5.26822 8.52688 5.32114 9.01522 5.52342C9.50355 5.7257 9.92094 6.06824 10.2146 6.50773C10.5083 6.94722 10.665 7.46392 10.665 7.99249C10.665 8.70129 10.3834 9.38105 9.88224 9.88224C9.38105 10.3834 8.70129 10.665 7.99249 10.665ZM13.2274 3.71849C13.2274 3.91645 13.1687 4.10997 13.0587 4.27458C12.9487 4.43918 12.7924 4.56747 12.6095 4.64323C12.4266 4.71899 12.2254 4.73881 12.0312 4.70019C11.837 4.66157 11.6587 4.56624 11.5187 4.42626C11.3787 4.28627 11.2834 4.10792 11.2448 3.91376C11.2061 3.7196 11.226 3.51834 11.3017 3.33544C11.3775 3.15255 11.5058 2.99622 11.6704 2.88624C11.835 2.77625 12.0285 2.71755 12.2265 2.71755C12.4919 2.71755 12.7465 2.823 12.9342 3.01072C13.1219 3.19843 13.2274 3.45302 13.2274 3.71849ZM15.9399 4.71942C15.9691 3.47508 15.5049 2.26972 14.6487 1.36628C13.7501 0.499156 12.5442 0.0239794 11.2956 0.0450422C9.99437 -0.0150141 5.99062 -0.0150141 4.6894 0.0450422C3.44544 0.0181061 2.24087 0.481953 1.33625 1.33625C0.480083 2.23969 0.0159289 3.44506 0.0450422 4.6894C-0.0150141 5.99062 -0.0150141 9.99437 0.0450422 11.2956C0.0159289 12.5399 0.480083 13.7453 1.33625 14.6487C2.24087 15.503 3.44544 15.9669 4.6894 15.9399C6.01064 16.02 9.97435 16.02 11.2956 15.9399C12.5399 15.9691 13.7453 15.5049 14.6487 14.6487C15.5049 13.7453 15.9691 12.5399 15.9399 11.2956C16 9.99437 16 5.99062 15.9399 4.6894V4.71942ZM14.2383 12.7269C14.1024 13.0712 13.8973 13.3839 13.6356 13.6456C13.3739 13.9073 13.0612 14.1125 12.7169 14.2484C11.1631 14.5625 9.57454 14.6702 7.99249 14.5687C6.41377 14.6704 4.82853 14.5627 3.27807 14.2484C2.93381 14.1125 2.62113 13.9073 2.35942 13.6456C2.09771 13.3839 1.89255 13.0712 1.75665 12.7269C1.33625 11.6659 1.42634 9.16359 1.42634 8.0025C1.42634 6.84141 1.33625 4.32906 1.75665 3.27807C1.88871 2.93041 2.09241 2.61441 2.35452 2.35058C2.61663 2.08675 2.93129 1.88098 3.27807 1.74664C4.82853 1.43232 6.41377 1.32462 7.99249 1.42634C9.57454 1.32479 11.1631 1.43249 12.7169 1.74664C13.0612 1.88254 13.3739 2.0877 13.6356 2.34941C13.8973 2.61112 14.1024 2.9238 14.2383 3.26806C14.6587 4.32906 14.5586 6.8314 14.5586 7.99249C14.5586 9.15358 14.6587 11.6659 14.2383 12.7169V12.7269Z" fill="#C39B7F"/>
</svg>
