<svg width="30" height="30" viewBox="0 0 30 30" fill="none" xmlns="http://www.w3.org/2000/svg">
<path d="M15 2.50467e-08C17.939 -0.000169781 20.8134 0.863069 23.266 2.4825C25.7186 4.10193 27.6414 6.40619 28.7957 9.10908C29.9499 11.812 30.2847 14.7944 29.7584 17.6859C29.2322 20.5775 27.868 23.2507 25.8355 25.3736C23.8029 27.4965 21.1915 28.9755 18.3256 29.6269C15.4597 30.2783 12.4655 30.0735 9.71501 29.0378C6.9645 28.0021 4.57886 26.1812 2.85437 23.8013C1.12989 21.4214 0.142554 18.5873 0.0150003 15.651L0 15L0.0150003 14.349C0.182758 10.4873 1.83482 6.83933 4.62667 4.16598C7.41852 1.49262 11.1346 0.000223352 15 2.50467e-08Z" fill="#C39B7F"/>
</svg>
