<svg width="28" height="28" viewBox="0 0 28 28" fill="none" xmlns="http://www.w3.org/2000/svg">
<path d="M13.9869 6.80513C12.5665 6.80513 11.1779 7.22633 9.99691 8.01547C8.81588 8.80461 7.89538 9.92624 7.35181 11.2385C6.80824 12.5508 6.66602 13.9948 6.94313 15.3879C7.22023 16.7811 7.90423 18.0607 8.90861 19.0651C9.913 20.0695 11.1927 20.7535 12.5858 21.0306C13.9789 21.3077 15.4229 21.1655 16.7352 20.6219C18.0475 20.0783 19.1691 19.1578 19.9583 17.9768C20.7474 16.7958 21.1686 15.4073 21.1686 13.9869C21.1709 13.0431 20.9867 12.1082 20.6266 11.2358C20.2665 10.3634 19.7376 9.57081 19.0703 8.90346C18.4029 8.23611 17.6103 7.7072 16.7379 7.3471C15.8656 6.987 14.9306 6.80282 13.9869 6.80513ZM13.9869 18.6637C13.0619 18.6637 12.1576 18.3895 11.3885 17.8755C10.6194 17.3616 10.02 16.6312 9.66599 15.7766C9.312 14.922 9.21939 13.9817 9.39984 13.0744C9.5803 12.1672 10.0257 11.3339 10.6798 10.6798C11.3339 10.0257 12.1672 9.5803 13.0745 9.39984C13.9817 9.21938 14.922 9.312 15.7766 9.66598C16.6312 10.02 17.3617 10.6194 17.8756 11.3885C18.3895 12.1576 18.6638 13.0619 18.6638 13.9869C18.6638 15.2272 18.171 16.4168 17.2939 17.2939C16.4168 18.171 15.2273 18.6637 13.9869 18.6637ZM23.148 6.50735C23.148 6.85379 23.0452 7.19245 22.8528 7.48051C22.6603 7.76857 22.3867 7.99308 22.0666 8.12566C21.7466 8.25823 21.3944 8.29292 21.0546 8.22533C20.7148 8.15775 20.4027 7.99092 20.1577 7.74595C19.9127 7.50098 19.7459 7.18886 19.6783 6.84908C19.6107 6.50929 19.6454 6.1571 19.778 5.83703C19.9106 5.51696 20.1351 5.24339 20.4232 5.05091C20.7112 4.85844 21.0499 4.75571 21.3963 4.75571C21.8609 4.75571 22.3064 4.94026 22.6349 5.26875C22.9634 5.59725 23.148 6.04279 23.148 6.50735ZM27.8949 8.25899C27.9459 6.0814 27.1336 3.97201 25.6353 2.39099C24.0627 0.873522 21.9523 0.041964 19.7673 0.0788239C17.4901 -0.0262746 10.4836 -0.0262746 8.20644 0.0788239C6.02951 0.0316857 3.92153 0.843417 2.33844 2.33844C0.840146 3.91946 0.0278756 6.02885 0.0788239 8.20644C-0.0262746 10.4836 -0.0262746 17.4901 0.0788239 19.7673C0.0278756 21.9449 0.840146 24.0543 2.33844 25.6353C3.92153 27.1303 6.02951 27.942 8.20644 27.8949C10.5186 28.035 17.4551 28.035 19.7673 27.8949C21.9449 27.9458 24.0543 27.1336 25.6353 25.6353C27.1336 24.0543 27.9459 21.9449 27.8949 19.7673C28 17.4901 28 10.4836 27.8949 8.20644V8.25899ZM24.9171 22.2721C24.6793 22.8746 24.3202 23.4218 23.8623 23.8798C23.4043 24.3378 22.8571 24.6968 22.2546 24.9346C19.5354 25.4844 16.7554 25.6729 13.9869 25.4951C11.2241 25.6732 8.44993 25.4847 5.73663 24.9346C5.13417 24.6968 4.58698 24.3378 4.12899 23.8798C3.671 23.4218 3.31196 22.8746 3.07413 22.2721C2.33844 20.4154 2.49609 16.0363 2.49609 14.0044C2.49609 11.9725 2.33844 7.57585 3.07413 5.73663C3.30525 5.12823 3.66172 4.57522 4.12041 4.11351C4.5791 3.65181 5.12975 3.29172 5.73663 3.05662C8.44993 2.50656 11.2241 2.31808 13.9869 2.49609C16.7554 2.31838 19.5354 2.50685 22.2546 3.05662C22.8571 3.29444 23.4043 3.65348 23.8623 4.11147C24.3202 4.56947 24.6793 5.11665 24.9171 5.71911C25.6528 7.57585 25.4776 11.955 25.4776 13.9869C25.4776 16.0188 25.6528 20.4154 24.9171 22.2546V22.2721Z" fill="white"/>
</svg>
