<svg width="24" height="40" viewBox="0 0 24 40" fill="none" xmlns="http://www.w3.org/2000/svg">
<path d="M22.1442 0.880462C22.708 1.44439 23.0247 2.20914 23.0247 3.00654C23.0247 3.80393 22.708 4.56868 22.1442 5.13261L7.25869 20.0182L22.1442 34.9037C22.692 35.4709 22.9951 36.2305 22.9883 37.019C22.9814 37.8074 22.6652 38.5617 22.1076 39.1192C21.55 39.6768 20.7958 39.993 20.0073 39.9999C19.2189 40.0067 18.4592 39.7036 17.8921 39.1558L0.880461 22.1442C0.316702 21.5803 0 20.8156 0 20.0182C0 19.2208 0.316702 18.456 0.880461 17.8921L17.8921 0.880462C18.456 0.316702 19.2208 0 20.0182 0C20.8156 0 21.5803 0.316702 22.1442 0.880462Z" fill="#C39B7F"/>
</svg>
