<svg width="30" height="30" viewBox="0 0 30 30" fill="none" xmlns="http://www.w3.org/2000/svg">
<path d="M0 15C0 11.0218 1.58035 7.20644 4.3934 4.3934C7.20644 1.58035 11.0218 0 15 0C18.9782 0 22.7936 1.58035 25.6066 4.3934C28.4196 7.20644 30 11.0218 30 15C30 18.9782 28.4196 22.7936 25.6066 25.6066C22.7936 28.4196 18.9782 30 15 30C11.0218 30 7.20644 28.4196 4.3934 25.6066C1.58035 22.7936 0 18.9782 0 15ZM15 2.8125C11.7677 2.8125 8.66774 4.09654 6.38214 6.38214C4.09654 8.66774 2.8125 11.7677 2.8125 15C2.8125 18.2323 4.09654 21.3323 6.38214 23.6179C8.66774 25.9035 11.7677 27.1875 15 27.1875C18.2323 27.1875 21.3323 25.9035 23.6179 23.6179C25.9035 21.3323 27.1875 18.2323 27.1875 15C27.1875 11.7677 25.9035 8.66774 23.6179 6.38214C21.3323 4.09654 18.2323 2.8125 15 2.8125ZM12.1875 14.5312C12.1875 14.1583 12.3357 13.8006 12.5994 13.5369C12.8631 13.2732 13.2208 13.125 13.5938 13.125H15.4688C15.8417 13.125 16.1994 13.2732 16.4631 13.5369C16.7268 13.8006 16.875 14.1583 16.875 14.5312V19.6875H17.3438C17.7167 19.6875 18.0744 19.8357 18.3381 20.0994C18.6018 20.3631 18.75 20.7208 18.75 21.0938C18.75 21.4667 18.6018 21.8244 18.3381 22.0881C18.0744 22.3518 17.7167 22.5 17.3438 22.5H13.5938C13.2208 22.5 12.8631 22.3518 12.5994 22.0881C12.3357 21.8244 12.1875 21.4667 12.1875 21.0938C12.1875 20.7208 12.3357 20.3631 12.5994 20.0994C12.8631 19.8357 13.2208 19.6875 13.5938 19.6875H14.0625V15.9375H13.5938C13.2208 15.9375 12.8631 15.7893 12.5994 15.5256C12.3357 15.2619 12.1875 14.9042 12.1875 14.5312ZM15 11.25C14.5027 11.25 14.0258 11.0525 13.6742 10.7008C13.3225 10.3492 13.125 9.87228 13.125 9.375C13.125 8.87772 13.3225 8.40081 13.6742 8.04918C14.0258 7.69754 14.5027 7.5 15 7.5C15.4973 7.5 15.9742 7.69754 16.3258 8.04918C16.6775 8.40081 16.875 8.87772 16.875 9.375C16.875 9.87228 16.6775 10.3492 16.3258 10.7008C15.9742 11.0525 15.4973 11.25 15 11.25Z" fill="#C39B7F"/>
</svg>
