<svg width="29" height="28" viewBox="0 0 29 28" fill="none" xmlns="http://www.w3.org/2000/svg">
<path d="M14.236 8.33972e-05C6.59198 8.33972e-05 0.362 6.23006 0.362 13.874C0.362 16.324 1.006 18.704 2.20999 20.804L0.25 28L7.59998 26.068C9.62997 27.174 11.912 27.762 14.236 27.762C21.8799 27.762 28.1099 21.532 28.1099 13.888C28.1099 10.1781 26.6679 6.69206 24.0499 4.07407C22.7664 2.77757 21.2376 1.74961 19.5526 1.05015C17.8677 0.35069 16.0603 -0.00627214 14.236 8.33972e-05ZM14.25 2.33808C17.33 2.33808 20.2139 3.54207 22.3979 5.72607C23.4698 6.79756 24.3196 8.0701 24.8986 9.47072C25.4775 10.8713 25.7743 12.3725 25.7719 13.888C25.7719 20.244 20.5919 25.41 14.236 25.41C12.164 25.41 10.134 24.864 8.36998 23.8L7.94998 23.562L3.58199 24.71L4.74399 20.454L4.46399 20.006C3.30751 18.1702 2.69581 16.0438 2.69999 13.874C2.71399 7.51806 7.87998 2.33808 14.25 2.33808ZM9.32197 7.46206C9.09797 7.46206 8.71998 7.54606 8.39798 7.89606C8.08998 8.24606 7.17998 9.10006 7.17998 10.7941C7.17998 12.502 8.42598 14.14 8.57998 14.378C8.77598 14.616 11.044 18.116 14.53 19.6C15.356 19.978 16 20.188 16.504 20.342C17.33 20.608 18.0859 20.566 18.6879 20.482C19.3599 20.384 20.7319 19.642 21.0259 18.83C21.3199 18.018 21.3199 17.332 21.2359 17.178C21.1379 17.038 20.9139 16.954 20.5639 16.8C20.2139 16.604 18.5059 15.764 18.1979 15.652C17.8759 15.54 17.68 15.484 17.414 15.82C17.19 16.17 16.518 16.954 16.322 17.178C16.112 17.416 15.916 17.444 15.58 17.276C15.216 17.094 14.096 16.73 12.78 15.554C11.744 14.63 11.058 13.496 10.848 13.146C10.68 12.81 10.834 12.6 11.002 12.446C11.156 12.292 11.38 12.04 11.52 11.83C11.702 11.634 11.758 11.48 11.87 11.256C11.982 11.018 11.926 10.8221 11.842 10.6541C11.758 10.5001 11.058 8.76406 10.764 8.07806C10.484 7.40606 10.204 7.49006 9.97997 7.47606C9.78397 7.47606 9.55997 7.46206 9.32197 7.46206Z" fill="white"/>
</svg>
