<svg width="25" height="18" viewBox="0 0 25 18" fill="none" xmlns="http://www.w3.org/2000/svg">
<path d="M14.5213 9.0001L10.5776 11.2536V6.74658L14.5213 9.0001Z" fill="#565656" stroke="#565656" stroke-width="1.25" stroke-linecap="round" stroke-linejoin="round"/>
<path d="M1 9.79662V8.20225C1 4.94028 1 3.30873 2.01972 2.25972C3.04056 1.20958 4.64732 1.16451 7.85972 1.07324C9.38084 1.03042 10.9358 1 12.2676 1C13.5983 1 15.1532 1.03042 16.6755 1.07324C19.8879 1.16451 21.4946 1.20958 22.5144 2.25972C23.5352 3.30873 23.5352 4.94141 23.5352 8.20225V9.79662C23.5352 13.0597 23.5352 14.6901 22.5155 15.7403C21.4946 16.7893 19.889 16.8355 16.6755 16.9256C15.1544 16.9696 13.5994 17 12.2676 17C10.798 16.9956 9.3286 16.9708 7.85972 16.9256C4.64732 16.8355 3.04056 16.7904 2.01972 15.7403C1 14.6901 1 13.0586 1 9.79775V9.79662Z" stroke="#565656" stroke-width="1.25"/>
</svg>
