<svg width="64" height="64" viewBox="0 0 64 64" fill="none" xmlns="http://www.w3.org/2000/svg">
<path d="M60.8002 46.4001V17.6C60.8002 14.944 58.6562 12.8 56.0002 12.8H11.1682C8.51216 12.8 6.36816 14.944 6.36816 17.6V46.4001C6.36816 49.056 8.51216 51.2001 11.1682 51.2001H56.0002C58.6562 51.2001 60.8002 49.056 60.8002 46.4001ZM56.6082 17.248C57.6642 18.304 57.0882 19.392 56.5122 19.936L43.5202 31.84L56.0002 44.8321C56.3842 45.28 56.6402 45.9841 56.1922 46.4641C55.7762 46.9761 54.8162 46.944 54.4002 46.6241L40.4162 34.688L33.5682 40.928L26.7522 34.688L12.7682 46.6241C12.3522 46.944 11.3922 46.9761 10.9762 46.4641C10.5282 45.9841 10.7842 45.28 11.1682 44.8321L23.6482 31.84L10.6562 19.936C10.0802 19.392 9.50416 18.304 10.5602 17.248C11.6162 16.192 12.7042 16.704 13.6002 17.472L33.5682 33.6L53.5682 17.472C54.4642 16.704 55.5522 16.192 56.6082 17.248Z" fill="white"/>
</svg>
