<svg width="16" height="16" viewBox="0 0 16 16" fill="none" xmlns="http://www.w3.org/2000/svg">
<path d="M7.99198 4.76556e-05C3.62399 4.76556e-05 0.0639999 3.56004 0.0639999 7.92802C0.0639999 9.32802 0.431999 10.688 1.12 11.888L0 16L4.19999 14.896C5.35998 15.528 6.66398 15.864 7.99198 15.864C12.36 15.864 15.92 12.304 15.92 7.93602C15.92 5.81603 15.096 3.82404 13.6 2.32804C12.8665 1.58718 11.9929 0.999779 11.0301 0.600087C10.0672 0.200395 9.03447 -0.00358408 7.99198 4.76556e-05ZM7.99998 1.33604C9.75997 1.33604 11.408 2.02404 12.656 3.27204C13.2684 3.88432 13.754 4.61149 14.0849 5.41184C14.4157 6.21219 14.5853 7.06998 14.584 7.93602C14.584 11.568 11.624 14.52 7.99198 14.52C6.80798 14.52 5.64798 14.208 4.63999 13.6L4.39999 13.464L1.90399 14.12L2.56799 11.688L2.40799 11.432C1.74715 10.383 1.39761 9.16788 1.4 7.92802C1.408 4.29603 4.35999 1.33604 7.99998 1.33604ZM5.18398 4.26403C5.05598 4.26403 4.83999 4.31203 4.65599 4.51203C4.47999 4.71203 3.95999 5.20003 3.95999 6.16803C3.95999 7.14403 4.67199 8.08002 4.75999 8.21602C4.87199 8.35202 6.16798 10.352 8.15998 11.2C8.63197 11.416 8.99997 11.536 9.28797 11.624C9.75997 11.776 10.192 11.752 10.536 11.704C10.92 11.648 11.704 11.224 11.872 10.76C12.04 10.296 12.04 9.90402 11.992 9.81602C11.936 9.73602 11.808 9.68802 11.608 9.60002C11.408 9.48802 10.432 9.00802 10.256 8.94402C10.072 8.88002 9.95997 8.84802 9.80797 9.04002C9.67997 9.24002 9.29597 9.68802 9.18397 9.81602C9.06397 9.95202 8.95197 9.96802 8.75997 9.87202C8.55197 9.76802 7.91198 9.56002 7.15998 8.88802C6.56798 8.36002 6.17598 7.71202 6.05598 7.51203C5.95998 7.32003 6.04798 7.20003 6.14398 7.11203C6.23198 7.02403 6.35998 6.88003 6.43998 6.76003C6.54398 6.64803 6.57598 6.56003 6.63998 6.43203C6.70398 6.29603 6.67198 6.18403 6.62398 6.08803C6.57598 6.00003 6.17598 5.00803 6.00798 4.61603C5.84798 4.23204 5.68798 4.28004 5.55998 4.27204C5.44798 4.27204 5.31998 4.26403 5.18398 4.26403Z" fill="#C39B7F"/>
</svg>
