<svg width="45" height="28" viewBox="0 0 45 28" fill="none" xmlns="http://www.w3.org/2000/svg">
<path fill-rule="evenodd" clip-rule="evenodd" d="M43.8145 22.7922C42.791 20.731 41.4423 18.8481 39.8202 17.2157C39.2777 16.6025 38.7096 16.0125 38.1175 15.4471L38.046 15.3775C37.8262 15.164 37.6092 14.9476 37.395 14.7284C39.6125 11.6449 41.51 8.34352 43.0581 4.87537L43.1202 4.73615L43.1635 4.5894C43.3686 3.90644 43.6019 2.60825 42.774 1.43424C41.9161 0.222601 40.5445 0.00435533 39.6245 0.00435533H35.397C34.5118 -0.0359841 33.6365 0.204725 32.8964 0.692033C32.1563 1.17934 31.5893 1.88827 31.2766 2.71737C30.3668 4.8841 29.2277 6.94723 27.8788 8.87152V3.91773C27.8788 3.27804 27.8186 2.20563 27.1318 1.30254C26.3115 0.218838 25.1244 0.00435533 24.3003 0.00435533H17.5911C16.7156 -0.0157885 15.866 0.301548 15.218 0.890648C14.5701 1.47975 14.1735 2.29548 14.1105 3.16892L14.1048 3.25358V3.33825C14.1048 4.25074 14.4661 4.92429 14.7558 5.34761C14.8856 5.53763 15.023 5.71073 15.1114 5.81985L15.1302 5.84431C15.2243 5.96096 15.2864 6.03809 15.3485 6.12464C15.514 6.34665 15.7492 6.69283 15.8169 7.58463V10.356C14.4702 8.10074 13.3659 5.7093 12.5226 3.2216L12.5075 3.18021L12.4925 3.1407C12.2629 2.54052 11.896 1.66754 11.1604 1.00151C10.3025 0.22072 9.2865 0.00435533 8.36272 0.00435533H4.07306C3.13799 0.00435533 2.01102 0.222602 1.17002 1.10875C0.344071 1.98174 0.25 3.02781 0.25 3.58095V3.83306L0.30268 4.07765C1.49043 9.59169 3.93804 14.7561 7.45399 19.1667C9.06144 21.7016 11.2437 23.8219 13.8238 25.3556C16.404 26.8894 19.3093 27.7934 22.3041 27.9944L22.3812 28H22.4603C23.8262 28 25.2504 27.8815 26.3209 27.1684C27.764 26.2051 27.8788 24.7282 27.8788 23.9907V21.8496C28.2494 22.1506 28.7085 22.5533 29.271 23.0951C29.9521 23.7762 30.494 24.367 30.9587 24.8825L31.207 25.1572C31.5683 25.5598 31.9238 25.9568 32.2474 26.2823C32.6538 26.6905 33.1562 27.1402 33.7846 27.4732C34.4675 27.8326 35.1844 27.9962 35.9445 27.9962H40.236C41.141 27.9962 42.4373 27.7818 43.3498 26.7244C44.3431 25.573 44.2679 24.16 43.9556 23.1459L43.8991 22.9634L43.8145 22.7922ZM33.0527 22.9916C32.4696 22.3398 31.8692 21.7037 31.2522 21.0839L31.2465 21.0782C28.6934 18.6173 27.5025 18.1902 26.6596 18.1902C26.2099 18.1902 25.7151 18.2392 25.3934 18.6418C25.2486 18.8338 25.1535 19.0588 25.1168 19.2965C25.0715 19.5726 25.0513 19.8522 25.0566 20.1319V23.9907C25.0566 24.4704 24.9776 24.6718 24.7556 24.8185C24.4602 25.0161 23.8299 25.176 22.4772 25.176C19.9076 25.0011 17.4161 24.2189 15.2077 22.8936C12.9993 21.5683 11.1369 19.7377 9.77379 17.5524L9.75874 17.528L9.73992 17.5054C6.46457 13.4286 4.18189 8.64621 3.07214 3.5358C3.07967 3.29121 3.13235 3.14258 3.21889 3.05227C3.30732 2.9582 3.52368 2.8265 4.07306 2.8265H8.36272C8.83872 2.8265 9.08707 2.93186 9.2658 3.09178C9.46523 3.27616 9.64209 3.58659 9.85281 4.13973C10.9064 7.23656 12.3288 10.134 13.6778 12.2619C14.3513 13.3267 15.0136 14.2129 15.6119 14.8394C15.911 15.1517 16.2026 15.4114 16.483 15.5957C16.752 15.7726 17.0587 15.9137 17.3748 15.9137C17.5403 15.9137 17.7341 15.8949 17.9204 15.814C18.1215 15.7251 18.2871 15.5715 18.3907 15.3775C18.5845 15.0238 18.6391 14.5026 18.6391 13.8197V7.47362C18.5394 5.93462 18.0746 5.06728 17.6231 4.45205C17.5317 4.32899 17.4376 4.20793 17.3409 4.08893L17.3164 4.05883C17.2362 3.96138 17.1596 3.86097 17.0869 3.7578C16.9943 3.64275 16.9385 3.50242 16.927 3.35518C16.9417 3.20567 17.0131 3.06746 17.1264 2.96883C17.2397 2.8702 17.3864 2.81861 17.5366 2.82462H24.3003C24.6879 2.82462 24.8177 2.91869 24.8835 3.00711C24.9776 3.12941 25.0566 3.3834 25.0566 3.91773V12.4368C25.0566 13.449 25.5232 14.1339 26.2005 14.1339C26.9794 14.1339 27.542 13.6616 28.5241 12.6795L28.541 12.6607L28.5561 12.6438C30.7592 9.95764 32.5592 6.96484 33.8993 3.75969L33.9069 3.73711C34.0076 3.45393 34.1982 3.21146 34.4495 3.04671C34.7009 2.88195 34.9993 2.80396 35.2991 2.82462H39.6264C40.2134 2.82462 40.4053 2.97513 40.4693 3.06356C40.5351 3.15763 40.5822 3.35894 40.4693 3.75404C38.9239 7.20901 37.0134 10.4888 34.7704 13.5375L34.7554 13.56C34.539 13.8931 34.3001 14.2618 34.2662 14.6833C34.2286 15.1386 34.4243 15.5506 34.7686 15.9946C35.0188 16.3634 35.5362 16.8695 36.0611 17.3831L36.11 17.432C36.6594 17.9701 37.2558 18.5534 37.7337 19.1178L37.7469 19.1309L37.76 19.146C39.185 20.5674 40.3701 22.2105 41.2689 24.0114C41.4119 24.5005 41.3253 24.7527 41.2124 24.8825C41.0826 25.033 40.791 25.1741 40.2379 25.1741H35.9445C35.6518 25.1812 35.3623 25.1132 35.1035 24.9765C34.7862 24.792 34.4983 24.5612 34.2493 24.2917C33.9802 24.0227 33.6886 23.6972 33.3311 23.3002L33.0546 22.9916H33.0527Z" fill="white"/>
</svg>
