<svg width="26" height="16" viewBox="0 0 26 16" fill="none" xmlns="http://www.w3.org/2000/svg">
<path fill-rule="evenodd" clip-rule="evenodd" d="M24.894 13.0241C24.3091 11.8463 23.5385 10.7703 22.6115 9.83752C22.3015 9.48717 21.9769 9.15001 21.6386 8.82692L21.5977 8.78714C21.4721 8.66514 21.3481 8.5415 21.2257 8.41623C22.4928 6.65424 23.5771 4.76773 24.4618 2.78593L24.4973 2.70637L24.522 2.62251C24.6392 2.23225 24.7725 1.49043 24.2994 0.819566C23.8092 0.127201 23.0255 0.00248876 22.4997 0.00248876H20.084C19.5781 -0.0205624 19.078 0.116985 18.6551 0.395448C18.2322 0.67391 17.9082 1.07901 17.7295 1.55279C17.2096 2.79092 16.5587 3.96985 15.7879 5.06944V2.2387C15.7879 1.87317 15.7535 1.26036 15.3611 0.744309C14.8923 0.12505 14.2139 0.00248876 13.743 0.00248876H9.90921C9.40894 -0.009022 8.9234 0.172313 8.55315 0.508942C8.1829 0.84557 7.9563 1.3117 7.92027 1.81081L7.91705 1.85919V1.90757C7.91705 2.42899 8.12347 2.81388 8.28903 3.05578C8.36321 3.16436 8.4417 3.26327 8.49223 3.32563L8.50298 3.3396C8.55673 3.40626 8.59221 3.45034 8.62769 3.49979C8.7223 3.62666 8.85669 3.82447 8.89539 4.33407V5.9177C8.12581 4.629 7.49479 3.26245 7.01289 1.84091L7.00429 1.81726L6.99569 1.79468C6.86452 1.45173 6.65488 0.952879 6.23451 0.572293C5.74427 0.126126 5.16371 0.00248876 4.63584 0.00248876H2.18461C1.65028 0.00248876 1.0063 0.127201 0.525725 0.633574C0.0537551 1.13242 0 1.73018 0 2.04626V2.19032L0.0301028 2.33008C0.708815 5.48096 2.10745 8.43205 4.11656 10.9524C5.03511 12.4009 6.28213 13.6125 7.75648 14.4889C9.23083 15.3654 10.891 15.8819 12.6023 15.9968L12.6464 16H12.6916C13.4721 16 14.2859 15.9323 14.8977 15.5248C15.7223 14.9744 15.7879 14.1304 15.7879 13.709V12.4855C15.9997 12.6575 16.262 12.8876 16.5834 13.1972C16.9726 13.5864 17.2823 13.924 17.5478 14.2186L17.6897 14.3755C17.8961 14.6056 18.0993 14.8324 18.2843 15.0184C18.5165 15.2517 18.8035 15.5087 19.1626 15.699C19.5529 15.9043 19.9625 15.9979 20.3968 15.9979H22.8491C23.3663 15.9979 24.107 15.8753 24.6284 15.2711C25.1961 14.6131 25.1531 13.8057 24.9746 13.2262L24.9424 13.122L24.894 13.0241ZM18.7444 13.1381C18.4112 12.7656 18.0681 12.4021 17.7155 12.0479L17.7123 12.0447C16.2534 10.6385 15.5728 10.3944 15.0912 10.3944C14.8343 10.3944 14.5515 10.4224 14.3677 10.6524C14.2849 10.7622 14.2306 10.8907 14.2096 11.0266C14.1837 11.1843 14.1722 11.3441 14.1752 11.5039V13.709C14.1752 13.9831 14.1301 14.0981 14.0032 14.182C13.8344 14.2949 13.4742 14.3863 12.7012 14.3863C11.2329 14.2864 9.8092 13.8394 8.54725 13.082C7.28529 12.3247 6.2211 11.2787 5.44216 10.03L5.43356 10.016L5.42281 10.0031C3.55119 7.67351 2.24679 4.94069 1.61265 2.02045C1.61695 1.88069 1.64706 1.79576 1.69651 1.74415C1.74704 1.6904 1.87068 1.61514 2.18461 1.61514H4.63584C4.90784 1.61514 5.04975 1.67535 5.15189 1.76673C5.26585 1.87209 5.36691 2.04948 5.48732 2.36556C6.08938 4.13518 6.90215 5.79084 7.673 7.00678C8.05789 7.61528 8.43632 8.12166 8.7782 8.47966C8.94915 8.65813 9.11579 8.8065 9.27598 8.91186C9.42972 9.01292 9.60496 9.09355 9.78557 9.09355C9.88018 9.09355 9.99092 9.0828 10.0974 9.03657C10.2123 8.9858 10.3069 8.89798 10.3661 8.78714C10.4769 8.58502 10.508 8.28722 10.508 7.89696V4.27064C10.4511 3.39121 10.1855 2.89559 9.92749 2.54403C9.87523 2.47371 9.82147 2.40453 9.76622 2.33653L9.75225 2.31933C9.7064 2.26365 9.66265 2.20627 9.62108 2.14732C9.56816 2.08157 9.53631 2.00138 9.5297 1.91724C9.53813 1.83181 9.5789 1.75284 9.64365 1.69648C9.70841 1.64012 9.79225 1.61063 9.87803 1.61407H13.743C13.9645 1.61407 14.0387 1.66782 14.0763 1.71835C14.1301 1.78823 14.1752 1.93337 14.1752 2.2387V7.10676C14.1752 7.68517 14.4418 8.0765 14.8289 8.0765C15.274 8.0765 15.5954 7.80665 16.1566 7.24545L16.1663 7.2347L16.1749 7.22502C17.4338 5.69008 18.4624 3.97991 19.2282 2.14839L19.2325 2.13549C19.29 1.97367 19.3989 1.83512 19.5426 1.74098C19.6862 1.64683 19.8567 1.60226 20.0281 1.61407H22.5008C22.8362 1.61407 22.9459 1.70007 22.9824 1.7506C23.0201 1.80436 23.047 1.91939 22.9824 2.14517C22.0993 4.11943 21.0076 5.9936 19.726 7.7357L19.7174 7.7486C19.5937 7.93889 19.4572 8.14961 19.4378 8.39043C19.4163 8.65061 19.5281 8.88605 19.7249 9.13978C19.8679 9.3505 20.1635 9.6397 20.4635 9.9332L20.4914 9.96116C20.8054 10.2686 21.1462 10.6019 21.4192 10.9244L21.4268 10.932L21.4343 10.9406C22.2486 11.7528 22.9257 12.6917 23.4394 13.7208C23.5211 14.0003 23.4716 14.1444 23.4071 14.2186C23.3329 14.3046 23.1663 14.3852 22.8502 14.3852H20.3968C20.2296 14.3893 20.0642 14.3504 19.9163 14.2723C19.735 14.1669 19.5705 14.035 19.4282 13.881C19.2744 13.7272 19.1078 13.5412 18.9035 13.3144L18.7455 13.1381H18.7444Z" fill="#565656"/>
</svg>
