<svg width="468" height="74" viewBox="0 0 468 74" fill="none" xmlns="http://www.w3.org/2000/svg">
<path d="M40.0559 65L28.9679 39.8H32.8559L43.0439 63.056H40.8119L51.0719 39.8H54.6719L43.6199 65H40.0559ZM53.2609 65L64.6729 39.8H68.2369L79.6849 65H75.9049L65.7169 41.816H67.1569L56.9689 65H53.2609ZM58.1209 58.7L59.0929 55.82H73.2769L74.3209 58.7H58.1209ZM83.4441 65V39.8H87.0441V61.868H100.688V65H83.4441ZM108.095 50.672H121.055V53.732H108.095V50.672ZM108.419 61.868H123.107V65H104.819V39.8H122.603V42.932H108.419V61.868ZM128.936 65V39.8H138.764C140.972 39.8 142.856 40.148 144.416 40.844C145.976 41.54 147.176 42.548 148.016 43.868C148.856 45.188 149.276 46.76 149.276 48.584C149.276 50.408 148.856 51.98 148.016 53.3C147.176 54.596 145.976 55.592 144.416 56.288C142.856 56.984 140.972 57.332 138.764 57.332H130.916L132.536 55.676V65H128.936ZM145.784 65L139.376 55.856H143.228L149.708 65H145.784ZM132.536 56.036L130.916 54.272H138.656C140.96 54.272 142.7 53.78 143.876 52.796C145.076 51.788 145.676 50.384 145.676 48.584C145.676 46.784 145.076 45.392 143.876 44.408C142.7 43.424 140.96 42.932 138.656 42.932H130.916L132.536 41.132V56.036ZM160.825 65V55.352L161.653 57.584L150.817 39.8H154.669L163.777 54.812H161.689L170.833 39.8H174.397L163.597 57.584L164.389 55.352V65H160.825Z" fill="#A78F7E"/>
<path d="M291.78 65V39.8H295.38V65H291.78ZM302.925 65V39.8H305.877L322.545 60.5H320.997V39.8H324.597V65H321.645L304.977 44.3H306.525V65H302.925ZM337.143 65V42.932H328.503V39.8H349.347V42.932H340.707V65H337.143ZM356.544 50.672H369.504V53.732H356.544V50.672ZM356.868 61.868H371.556V65H353.268V39.8H371.052V42.932H356.868V61.868ZM377.385 65V39.8H387.213C389.421 39.8 391.305 40.148 392.865 40.844C394.425 41.54 395.625 42.548 396.465 43.868C397.305 45.188 397.725 46.76 397.725 48.584C397.725 50.408 397.305 51.98 396.465 53.3C395.625 54.596 394.425 55.592 392.865 56.288C391.305 56.984 389.421 57.332 387.213 57.332H379.365L380.985 55.676V65H377.385ZM394.233 65L387.825 55.856H391.677L398.157 65H394.233ZM380.985 56.036L379.365 54.272H387.105C389.409 54.272 391.149 53.78 392.325 52.796C393.525 51.788 394.125 50.384 394.125 48.584C394.125 46.784 393.525 45.392 392.325 44.408C391.149 43.424 389.409 42.932 387.105 42.932H379.365L380.985 41.132V56.036ZM403.542 65V39.8H407.142V65H403.542ZM426.062 65.288C424.142 65.288 422.354 64.964 420.698 64.316C419.066 63.668 417.65 62.768 416.45 61.616C415.25 60.44 414.314 59.072 413.642 57.512C412.97 55.952 412.634 54.248 412.634 52.4C412.634 50.552 412.97 48.848 413.642 47.288C414.314 45.728 415.25 44.372 416.45 43.22C417.65 42.044 419.066 41.132 420.698 40.484C422.33 39.836 424.118 39.512 426.062 39.512C427.982 39.512 429.746 39.836 431.354 40.484C432.986 41.108 434.402 42.008 435.602 43.184C436.826 44.336 437.762 45.692 438.41 47.252C439.082 48.812 439.418 50.528 439.418 52.4C439.418 54.272 439.082 55.988 438.41 57.548C437.762 59.108 436.826 60.476 435.602 61.652C434.402 62.804 432.986 63.704 431.354 64.352C429.746 64.976 427.982 65.288 426.062 65.288ZM426.062 62.084C427.454 62.084 428.738 61.844 429.914 61.364C431.114 60.884 432.146 60.212 433.01 59.348C433.898 58.46 434.582 57.428 435.062 56.252C435.566 55.076 435.818 53.792 435.818 52.4C435.818 51.008 435.566 49.724 435.062 48.548C434.582 47.372 433.898 46.352 433.01 45.488C432.146 44.6 431.114 43.916 429.914 43.436C428.738 42.956 427.454 42.716 426.062 42.716C424.646 42.716 423.338 42.956 422.138 43.436C420.962 43.916 419.93 44.6 419.042 45.488C418.154 46.352 417.458 47.372 416.954 48.548C416.474 49.724 416.234 51.008 416.234 52.4C416.234 53.792 416.474 55.076 416.954 56.252C417.458 57.428 418.154 58.46 419.042 59.348C419.93 60.212 420.962 60.884 422.138 61.364C423.338 61.844 424.646 62.084 426.062 62.084ZM444.921 65V39.8H454.749C456.957 39.8 458.841 40.148 460.401 40.844C461.961 41.54 463.161 42.548 464.001 43.868C464.841 45.188 465.261 46.76 465.261 48.584C465.261 50.408 464.841 51.98 464.001 53.3C463.161 54.596 461.961 55.592 460.401 56.288C458.841 56.984 456.957 57.332 454.749 57.332H446.901L448.521 55.676V65H444.921ZM461.769 65L455.361 55.856H459.213L465.693 65H461.769ZM448.521 56.036L446.901 54.272H454.641C456.945 54.272 458.685 53.78 459.861 52.796C461.061 51.788 461.661 50.384 461.661 48.584C461.661 46.784 461.061 45.392 459.861 44.408C458.685 43.424 456.945 42.932 454.641 42.932H446.901L448.521 41.132V56.036Z" fill="#A78F7E"/>
<path d="M184 32.7012L231.202 2.00018" stroke="#A78F7E" stroke-width="4" stroke-linecap="round"/>
<path d="M193 39L231.202 14" stroke="#A78F7E" stroke-width="4" stroke-linecap="round"/>
<path d="M270 39L231.202 14" stroke="#A78F7E" stroke-width="4" stroke-linecap="round"/>
<path d="M279.202 32.7012L231.202 2.00018" stroke="#A78F7E" stroke-width="4" stroke-linecap="round"/>
<path d="M193 39V65" stroke="#A78F7E" stroke-width="4" stroke-linecap="round"/>
<path d="M270 39L270 65" stroke="#A78F7E" stroke-width="4" stroke-linecap="round"/>
<path d="M193 65L270 65" stroke="#A78F7E" stroke-width="4" stroke-linecap="round"/>
</svg>
