<svg width="451" height="70" viewBox="0 0 451 70" fill="none" xmlns="http://www.w3.org/2000/svg">
<path d="M11.5271 67.4951L0 41.2971H4.04198L14.6335 65.4741H12.3131L22.9794 41.2971H26.722L15.2323 67.4951H11.5271Z" fill="white"/>
<path d="M25.2551 67.4951L37.119 41.2971H40.8242L52.7256 67.4951H48.7959L38.2044 43.3929H39.7014L29.1099 67.4951H25.2551ZM30.3076 60.9456L31.3181 57.9516H46.0638L47.1491 60.9456H30.3076Z" fill="white"/>
<path d="M56.6337 67.4951V41.2971H60.3762V64.2391H74.5606V67.4951H56.6337Z" fill="white"/>
<path d="M82.2609 52.5997H95.7342V55.7809H82.2609V52.5997ZM82.5978 64.2391H97.8675V67.4951H78.8552V41.2971H97.3435V44.5531H82.5978V64.2391Z" fill="white"/>
<path d="M103.928 67.4951V41.2971H114.145C116.44 41.2971 118.399 41.6589 120.021 42.3824C121.642 43.106 122.89 44.1539 123.763 45.5262C124.636 46.8985 125.073 48.5327 125.073 50.429C125.073 52.3252 124.636 53.9595 123.763 55.3318C122.89 56.6791 121.642 57.7145 120.021 58.4381C118.399 59.1617 116.44 59.5234 114.145 59.5234H105.986L107.67 57.8019V67.4951H103.928ZM121.443 67.4951L114.781 57.989H118.786L125.522 67.4951H121.443ZM107.67 58.1761L105.986 56.3423H114.032C116.428 56.3423 118.237 55.8308 119.459 54.8078C120.707 53.7599 121.331 52.3003 121.331 50.429C121.331 48.5577 120.707 47.1106 119.459 46.0876C118.237 45.0646 116.428 44.5531 114.032 44.5531H105.986L107.67 42.6819V58.1761Z" fill="white"/>
<path d="M137.079 67.4951V57.465L137.94 59.7854L126.675 41.2971H130.679L140.148 56.9036H137.977L147.484 41.2971H151.189L139.961 59.7854L140.784 57.465V67.4951H137.079Z" fill="white"/>
<path d="M270.102 67.4951V41.2971H273.844V67.4951H270.102Z" fill="white"/>
<path d="M281.688 67.4951V41.2971H284.757L302.085 62.8169H300.475V41.2971H304.218V67.4951H301.149L283.821 45.9753H285.43V67.4951H281.688Z" fill="white"/>
<path d="M317.262 67.4951V44.5531H308.28V41.2971H329.949V44.5531H320.967V67.4951H317.262Z" fill="white"/>
<path d="M337.431 52.5997H350.904V55.7809H337.431V52.5997ZM337.768 64.2391H353.038V67.4951H334.025V41.2971H352.514V44.5531H337.768V64.2391Z" fill="white"/>
<path d="M359.098 67.4951V41.2971H369.315C371.61 41.2971 373.569 41.6589 375.191 42.3824C376.812 43.106 378.06 44.1539 378.933 45.5262C379.807 46.8985 380.243 48.5327 380.243 50.429C380.243 52.3252 379.807 53.9595 378.933 55.3318C378.06 56.6791 376.812 57.7145 375.191 58.4381C373.569 59.1617 371.61 59.5234 369.315 59.5234H361.156L362.84 57.8019V67.4951H359.098ZM376.613 67.4951L369.951 57.989H373.956L380.692 67.4951H376.613ZM362.84 58.1761L361.156 56.3423H369.203C371.598 56.3423 373.407 55.8308 374.629 54.8078C375.877 53.7599 376.501 52.3003 376.501 50.429C376.501 48.5577 375.877 47.1106 374.629 46.0876C373.407 45.0646 371.598 44.5531 369.203 44.5531H361.156L362.84 42.6819V58.1761Z" fill="white"/>
<path d="M386.29 67.4951V41.2971H390.032V67.4951H386.29Z" fill="white"/>
<path d="M409.702 67.7945C407.706 67.7945 405.847 67.4577 404.126 66.784C402.429 66.1104 400.957 65.1747 399.71 63.9771C398.462 62.7545 397.489 61.3324 396.79 59.7106C396.092 58.0888 395.742 56.3173 395.742 54.3961C395.742 52.4749 396.092 50.7034 396.79 49.0817C397.489 47.4599 398.462 46.0502 399.71 44.8525C400.957 43.63 402.429 42.6819 404.126 42.0082C405.822 41.3345 407.681 40.9977 409.702 40.9977C411.698 40.9977 413.532 41.3345 415.204 42.0082C416.9 42.6569 418.373 43.5925 419.62 44.8151C420.893 46.0127 421.866 47.4225 422.539 49.0442C423.238 50.666 423.587 52.45 423.587 54.3961C423.587 56.3423 423.238 58.1262 422.539 59.748C421.866 61.3698 420.893 62.792 419.62 64.0145C418.373 65.2122 416.9 66.1478 415.204 66.8215C413.532 67.4702 411.698 67.7945 409.702 67.7945ZM409.702 64.4636C411.149 64.4636 412.484 64.2141 413.707 63.7151C414.954 63.2161 416.027 62.5175 416.925 61.6193C417.849 60.6961 418.56 59.6232 419.059 58.4007C419.583 57.1781 419.845 55.8432 419.845 54.3961C419.845 52.949 419.583 51.6141 419.059 50.3916C418.56 49.169 417.849 48.1086 416.925 47.2104C416.027 46.2872 414.954 45.5761 413.707 45.0771C412.484 44.5781 411.149 44.3286 409.702 44.3286C408.23 44.3286 406.87 44.5781 405.623 45.0771C404.4 45.5761 403.327 46.2872 402.404 47.2104C401.481 48.1086 400.757 49.169 400.234 50.3916C399.735 51.6141 399.485 52.949 399.485 54.3961C399.485 55.8432 399.735 57.1781 400.234 58.4007C400.757 59.6232 401.481 60.6961 402.404 61.6193C403.327 62.5175 404.4 63.2161 405.623 63.7151C406.87 64.2141 408.23 64.4636 409.702 64.4636Z" fill="white"/>
<path d="M429.307 67.4951V41.2971H439.525C441.82 41.2971 443.779 41.6589 445.401 42.3824C447.022 43.106 448.27 44.1539 449.143 45.5262C450.016 46.8985 450.453 48.5327 450.453 50.429C450.453 52.3252 450.016 53.9595 449.143 55.3318C448.27 56.6791 447.022 57.7145 445.401 58.4381C443.779 59.1617 441.82 59.5234 439.525 59.5234H431.366L433.05 57.8019V67.4951H429.307ZM446.823 67.4951L440.161 57.989H444.166L450.902 67.4951H446.823ZM433.05 58.1761L431.366 56.3423H439.412C441.808 56.3423 443.617 55.8308 444.839 54.8078C446.087 53.7599 446.71 52.3003 446.71 50.429C446.71 48.5577 446.087 47.1106 444.839 46.0876C443.617 45.0646 441.808 44.5531 439.412 44.5531H431.366L433.05 42.6819V58.1761Z" fill="white"/>
<path d="M158.053 33.9169L207.125 2" stroke="white" stroke-width="4" stroke-linecap="round"/>
<path d="M167.41 40.4653L207.125 14.4752" stroke="white" stroke-width="4" stroke-linecap="round"/>
<path d="M247.459 40.4653L207.125 14.4752" stroke="white" stroke-width="4" stroke-linecap="round"/>
<path d="M257.026 33.9169L207.125 2" stroke="white" stroke-width="4" stroke-linecap="round"/>
<path d="M167.41 40.4653V67.4951" stroke="white" stroke-width="4" stroke-linecap="round"/>
<path d="M247.459 40.4653L247.459 67.4951" stroke="white" stroke-width="4" stroke-linecap="round"/>
<path d="M167.41 67.4951L247.459 67.4951" stroke="white" stroke-width="4" stroke-linecap="round"/>
</svg>
